<svg xmlns="http://www.w3.org/2000/svg" width="18" height="19" viewBox="0 0 18 19">
    <path fill="#000" fill-rule="nonzero" d="M9 .25a9.001 9.001 0 0 0 0 18 9.001 9.001 0 0 0 0-18zM6.385 13.855H4.193V7.261h2.192v6.594zM5.289 6.361h-.014c-.736 0-1.212-.507-1.212-1.14 0-.647.49-1.139 1.24-1.139s1.212.492 1.226 1.14c0 .632-.476 1.139-1.24 1.139zm9 7.494h-2.192v-3.527c0-.887-.318-1.492-1.11-1.492-.606 0-.967.408-1.125.802-.058.14-.072.338-.072.535v3.682H7.598s.028-5.975 0-6.594H9.79v.934c.29-.45.812-1.089 1.975-1.089 1.442 0 2.523.943 2.523 2.968v3.781z"/>
</svg>
