<svg xmlns="http://www.w3.org/2000/svg" width="18" height="18" viewBox="0 0 18 18">
    <path fill="#000" fill-rule="nonzero" d="M9 .25c-4.973 0-9 4.027-9 9a8.994 8.994 0 0 0 6.154 8.539c.45.078.619-.192.619-.428 0-.213-.012-.922-.012-1.676-2.261.416-2.846-.551-3.026-1.057-.101-.26-.54-1.058-.922-1.272-.316-.168-.766-.585-.012-.596.709-.011 1.215.653 1.384.923.81 1.36 2.104.978 2.621.742.079-.585.315-.979.574-1.204-2.002-.225-4.095-1.001-4.095-4.444 0-.978.349-1.788.922-2.418-.09-.225-.404-1.148.09-2.385 0 0 .754-.236 2.476.922a8.351 8.351 0 0 1 2.25-.304c.764 0 1.53.102 2.25.304 1.72-1.17 2.474-.922 2.474-.922.496 1.237.18 2.16.09 2.385.574.63.923 1.428.923 2.418 0 3.454-2.104 4.22-4.106 4.444.326.282.607.822.607 1.665 0 1.204-.011 2.172-.011 2.475 0 .236.169.518.619.428A9.015 9.015 0 0 0 18 9.25c0-4.973-4.027-9-9-9z"/>
</svg>
