<svg xmlns="http://www.w3.org/2000/svg" width="18" height="19" viewBox="0 0 18 19">
    <path fill="#000" fill-rule="nonzero" d="M9 .25c-4.963 0-9 4.037-9 9 0 4.962 4.037 9 9 9 4.962 0 9-4.038 9-9 0-4.963-4.037-9-9-9zm4.378 7.303c.004.089.006.179.006.269 0 2.737-2.083 5.893-5.894 5.893a5.86 5.86 0 0 1-3.175-.93 4.158 4.158 0 0 0 3.067-.858 2.074 2.074 0 0 1-1.936-1.439 2.088 2.088 0 0 0 .936-.035 2.072 2.072 0 0 1-1.662-2.03v-.027c.28.155.6.248.938.259a2.07 2.07 0 0 1-.64-2.766 5.882 5.882 0 0 0 4.269 2.165 2.071 2.071 0 0 1 3.53-1.89 4.135 4.135 0 0 0 1.316-.502 2.08 2.08 0 0 1-.912 1.146c.42-.05.82-.161 1.19-.326-.277.415-.628.78-1.033 1.07z"/>
</svg>
